/* XPM */
static char *f6c5fc2c3d0b401a8785fa4e0bd339c3Tr1gCD4CSz34nW7N[] = {
/* columns rows colors chars-per-pixel */
"64 64 256 2 ",
"   c black",
".  c #010101",
"X  c #020202",
"o  c gray1",
"O  c #040404",
"+  c gray2",
"@  c #060606",
"#  c #070707",
"$  c gray3",
"%  c #090909",
"&  c gray4",
"*  c #0B0B0B",
"=  c #0C0C0C",
"-  c gray5",
";  c #0E0E0E",
":  c gray6",
">  c #101010",
",  c #111111",
"<  c gray7",
"1  c #131313",
"2  c gray8",
"3  c #151515",
"4  c #161616",
"5  c gray9",
"6  c #181818",
"7  c #191919",
"8  c gray10",
"9  c #1B1B1B",
"0  c gray11",
"q  c #1D1D1D",
"w  c #1E1E1E",
"e  c gray12",
"r  c #202020",
"t  c gray13",
"y  c #222222",
"u  c #232323",
"i  c gray14",
"p  c #252525",
"a  c gray15",
"s  c #272727",
"d  c #282828",
"f  c gray16",
"g  c #2A2A2A",
"h  c gray17",
"j  c #2C2C2C",
"k  c #2D2D2D",
"l  c gray18",
"z  c #2F2F2F",
"x  c gray19",
"c  c #313131",
"v  c #323232",
"b  c gray20",
"n  c #343434",
"m  c #353535",
"M  c gray21",
"N  c #373737",
"B  c gray22",
"V  c #393939",
"C  c #3A3A3A",
"Z  c gray23",
"A  c #3C3C3C",
"S  c gray24",
"D  c #3E3E3E",
"F  c #3F3F3F",
"G  c gray25",
"H  c #414141",
"J  c gray26",
"K  c #434343",
"L  c #444444",
"P  c gray27",
"I  c #464646",
"U  c gray28",
"Y  c #484848",
"T  c #494949",
"R  c gray29",
"E  c #4B4B4B",
"W  c #4C4C4C",
"Q  c gray30",
"!  c #4E4E4E",
"~  c gray31",
"^  c #505050",
"/  c #515151",
"(  c gray32",
")  c #535353",
"_  c gray33",
"`  c #555555",
"'  c #565656",
"]  c gray34",
"[  c #585858",
"{  c gray35",
"}  c #5A5A5A",
"|  c #5B5B5B",
" . c gray36",
".. c #5D5D5D",
"X. c gray37",
"o. c #5F5F5F",
"O. c #606060",
"+. c gray38",
"@. c #626262",
"#. c gray39",
"$. c #646464",
"%. c #656565",
"&. c gray40",
"*. c #676767",
"=. c #686868",
"-. c DimGray",
";. c #6A6A6A",
":. c gray42",
">. c #6C6C6C",
",. c #6D6D6D",
"<. c gray43",
"1. c #6F6F6F",
"2. c gray44",
"3. c #717171",
"4. c #727272",
"5. c gray45",
"6. c #747474",
"7. c gray46",
"8. c #767676",
"9. c #777777",
"0. c gray47",
"q. c #797979",
"w. c gray48",
"e. c #7B7B7B",
"r. c #7C7C7C",
"t. c gray49",
"y. c #7E7E7E",
"u. c gray50",
"i. c #808080",
"p. c #818181",
"a. c gray51",
"s. c #838383",
"d. c #848484",
"f. c gray52",
"g. c #868686",
"h. c gray53",
"j. c #888888",
"k. c #898989",
"l. c gray54",
"z. c #8B8B8B",
"x. c gray55",
"c. c #8D8D8D",
"v. c #8E8E8E",
"b. c gray56",
"n. c #909090",
"m. c gray57",
"M. c #929292",
"N. c #939393",
"B. c gray58",
"V. c #959595",
"C. c gray59",
"Z. c #979797",
"A. c #989898",
"S. c gray60",
"D. c #9A9A9A",
"F. c #9B9B9B",
"G. c gray61",
"H. c #9D9D9D",
"J. c gray62",
"K. c #9F9F9F",
"L. c #A0A0A0",
"P. c gray63",
"I. c #A2A2A2",
"U. c gray64",
"Y. c #A4A4A4",
"T. c #A5A5A5",
"R. c gray65",
"E. c #A7A7A7",
"W. c gray66",
"Q. c #A9A9A9",
"!. c #AAAAAA",
"~. c gray67",
"^. c #ACACAC",
"/. c gray68",
"(. c #AEAEAE",
"). c #AFAFAF",
"_. c gray69",
"`. c #B1B1B1",
"'. c #B2B2B2",
"]. c gray70",
"[. c #B4B4B4",
"{. c gray71",
"}. c #B6B6B6",
"|. c #B7B7B7",
" X c gray72",
".X c #B9B9B9",
"XX c gray73",
"oX c #BBBBBB",
"OX c #BCBCBC",
"+X c gray74",
"@X c gray",
"#X c gray75",
"$X c #C0C0C0",
"%X c #C1C1C1",
"&X c gray76",
"*X c #C3C3C3",
"=X c gray77",
"-X c #C5C5C5",
";X c #C6C6C6",
":X c gray78",
">X c #C8C8C8",
",X c gray79",
"<X c #CACACA",
"1X c #CBCBCB",
"2X c gray80",
"3X c #CDCDCD",
"4X c #CECECE",
"5X c gray81",
"6X c #D0D0D0",
"7X c gray82",
"8X c #D2D2D2",
"9X c LightGray",
"0X c gray83",
"qX c #D5D5D5",
"wX c gray84",
"eX c #D7D7D7",
"rX c #D8D8D8",
"tX c gray85",
"yX c #DADADA",
"uX c gray86",
"iX c gainsboro",
"pX c #DDDDDD",
"aX c gray87",
"sX c #DFDFDF",
"dX c gray88",
"fX c #E1E1E1",
"gX c #E2E2E2",
"hX c gray89",
"jX c #E4E4E4",
"kX c gray90",
"lX c #E6E6E6",
"zX c #E7E7E7",
"xX c gray91",
"cX c #E9E9E9",
"vX c #EAEAEA",
"bX c gray92",
"nX c #ECECEC",
"mX c gray93",
"MX c #EEEEEE",
"NX c #EFEFEF",
"BX c gray94",
"VX c #F1F1F1",
"CX c gray95",
"ZX c #F3F3F3",
"AX c #F4F4F4",
"SX c gray96",
"DX c #F6F6F6",
"FX c gray97",
"GX c #F8F8F8",
"HX c #F9F9F9",
"JX c gray98",
"KX c #FBFBFB",
"LX c gray99",
"PX c #FDFDFD",
"IX c #FEFEFE",
"UX c white",
/* pixels */
"I [ I Z.Y. XOX9X0X0XqX6X0XqX0X7X7XeX8X8X8XrX6X0X5XwX6XwX#X`.!.Z.I [ I Z.Y. XOX9X0X0XqX6X0XqX0X7X7XeX8X8X8XrX6X0X5XwX6XwX#X`.!.Z.",
"P [ T i.=XOX.X*X+XoX@X;XOX+X#X&X.X^.{.[.@X/.&X{.#X[.%X_.=X`.@Xk.P [ T i.=XOX.X*X+XoX@X;XOX+X#X&X.X^.{.[.@X/.&X{.#X[.%X_.=X`.@Xk.",
"I { I i.oX@X XoX$X*X'.'.$X].`.'.{._.].}.`.-X_.+X{.+X`._.|.+X[.v.I { I i.oX@X XoX$X*X'.'.$X].`.'.{._.].}.`.-X_.+X{.+X`._.|.+X[.v.",
"U ' R t.`.}.oX|.{.#X$X_.]. XT.}.].{.[./.#X]. X XOX{. X{.).Q.].z.U ' R t.`.}.oX|.{.#X$X_.]. XT.}.].{.[./.#X]. X XOX{. X{.).Q.].z.",
"L { I t.}.+X{._.(.`.&X|.'.Y.[.R.@X|.!.:X}.]. X@X[.&X!.+XQ.].L.n.L { I t.}.+X{._.(.`.&X|.'.Y.[.R.@X|.!.:X}.]. X@X[.&X!.+XQ.].L.n.",
"U ' P d.`.@X X_.|.}. X{.{.I.|.Q.@X].].OX'.}._.#X[.oX X#X!._./.j.U ' P d.`.@X X_.|.}. X{.{.I.|.Q.@X].].OX'.}._.#X[.oX X#X!._./.j.",
"E ^ ! t.'._.#X}._.].|.).T.|.P.%X}.OX}.!.].`.'.{.Q.{.oX!.).T.~.j.E ^ ! t.'._.#X}._.].|.).T.|.P.%X}.OX}.!.].`.'.{.Q.{.oX!.).T.~.j.",
"L  .K t.[.|.).@X'.{.{.I..XR.|.Y.#XW.@XR.W.[.Q.`.T.R./.P.~.Y.].x.L  .K t.[.|.).@X'.{.{.I..XR.|.Y.#XW.@XR.W.[.Q.`.T.R./.P.~.Y.].x.",
"U X.P i.'.[.E.'.T.~.R.E./.).!._.W.R.W.Y.~.Y.].Q.+X!.!.`.].E.R.z.Y ] J s.`.`.W.'.T.~.R.E./.).!._.W.R.W.Y.~.Y.].Q.oXQ.Q._.].W.E.c.",
"L ^ R y.!.V.{.Z.Q.Y.W.R.m.R.{.W.U.F.T.].E.'.A.R.Q.Y.N.U.W.A.E.z.Y ` Q t.W.B.[.B.Q.Y.W.R.m.R.{.W.U.F.T.].E.'.A.R./.W.V.T.W.Z.T.h.",
"T | Y w.W.k.B.!.Z.l.R.D.!.Z.W.N.H.U.Z.A.R.A.(.I.Y.G.Y.M.M.Q.C.z.P ' T t.W.x.D.Q.Z.l.R.D.!.Z.W.N.H.U.Z.A.R.A.(.I.P.D.U.M.B.^.S.b.",
"L { P r.v.c.l.S.j.A.c.R.f.~.Z.v.Y.C.v.C.x.S.d.J.x.U.z.A.k.T.S.x.T ] U a.c.j.h.B.j.A.c.R.f.~.Z.v.Y.C.v.C.x.S.d.J.c.Y.x.S.k.Y.Z.k.",
"U ' Y d.M.c.F.f.Z.A.A.j.K.g.v.Y.V.G.Z.j.N.v.B.k.D.c.G.k.Z.v.j.l.L } L y.Z.c.Z.v.Z.A.A.j.K.g.v.Y.V.G.Z.j.N.v.B.k.C.l.D.k.A.n.k.x.",
"E ] K X.,.O.#.*.@.@.*.%...O.&.#.%.@.@.O.=.O.%.&.#...+.@.#.&...=.W ( U #.&.o.-.o.@.@.*.%...O.&.#.%.@.@.O.=.O.%.&.&.O.#.#.#.%. .&.",
"L I S v p x k z c h f c b x j c j z m c j b k g x n c z k l x j c T Z h l M d b c h f c b x j c j z m c j b k g k c z l z c m v ",
"T U K U Q L W L U T Y I I Y Y U R I L E L L R W I K T U Y I U U E U L Y E G E P U T Y I I Y Y U R I L E L L R W T P T U U I U Y ",
"' { [ ' ] _ } ] } ( | _ ) ] } ` ` } } ' ) { _ } ' [ [ ` ` [ } ] ' { [ ' ] _ } ] } ( | _ ) ] } ` ` } } ' ) { _ } ] ] { ' { _ ` [ ",
"eX3X9X7X9XiX4X9X8X9XqX=X.XU.C.P { L N.).`.$X9X7XrX5X8XrX0X9X4X9XeX3X9X7X9XiX4X9X8X9XqX=X.XU.C.P { L N.).`.$X9X7X9X9X<XqX8XyX7XqX",
"`..X'.=X].oX[.#X{.OX_.+X`.&Xz.T [ Y u.@X+X$X$X#X$X+X=X+XOX*X#X}.`..X'.=X].oX[.#X{.OX_.+X`.&Xz.T [ Y u.@X+X$X$X#X#X#X;X+X$X_.].[.",
"].`.(.}.&X].@X|.OX X}.`.&X).l.U [ U u.@X@X[.%X#X+X.X_.#X_.|.`._.].`.(.}.&X].@X|.OX X}.`.&X).l.U [ U u.@X@X[.%X#XoX}.].`. X].'.`.",
"{.[.}.+X{.XX].@X[.^.[.}.U.XXf.T ] L p.{.{.OX_. X%XoX].{.|.!. X'.{.[.}.+X{.XX].@X[.^.[.}.U.XXf.T ] L p.{.{.OX_. X=X.X].W.{.'.}.[.",
"+X[.!.^. X}.[.E.].$XW.[.U.~.c.P ] Q 8.[.].=X_.'.].|.`.R.).E.oX].+X[.!.^. X}.[.E.].$XW.[.U.~.c.P ] Q 8.[.].=X_.'.{.'. XW.XX{.%X+X",
"^..XR.).^.W.].Y.U.!.R.Y.)./.j.Q ' H a.}.'.^.=X`.'.|.U..XY.].E.*X^..XR.).^.W.].Y.U.!.R.Y.)./.j.Q ' H a.}.'.^.=X`._.}.E._.!.OX~.R.",
"`.}.$X/.XX`.#X[.#X[.$XE.(.W.v.K [ L s.`.OX|.`.[.}.XX|._.W.[.T.@X`.}.$X/.XX`.#X[.#X[.$XE.(.W.v.K [ L s.`.OX|.`.[.'.#X'.{.Q.+X[.{.",
"oX{.E.}.).{.}.R.'.+X~.).W.W.j.W ' U u.{._.oX|.'.[.'.'.W.].R.;X(.oX{.E.}.).{.}.R.'.+X~.).W.W.j.W ' U u.{._.oX|.'._.|.].T.$X].+X%X",
"/.@XY.E. XL.'.W.E.~.W.T.E.|.j.H [ U u.{.{.[.+X`.{.[.~.(.T.}.H.:X/.@XY.E. XL.'.W.E.~.W.T.E.|.j.H [ U u.{.{.[.+X`.[.`.E.|.Y.+X/.K.",
"I.~.T.Y.W.XXU.$XR.E.(.{.!.Y.z.Q [ U i.`.'.Q.`.E.Y.W.U.(.`.E.[.U.I.~.T.Y.W.XXU.$XR.E.(.{.!.Y.z.Q [ U i.`.'.Q.`.E.!.I.(.J.}.!.T.^.",
"D.T.|.^.].m.~.U.~.B.W.W.V.T.b.G ( E t.E.F.[.M.^.Q.E.Q.V.Y. XW.W.D.T.|.^.].m.~.U.~.B.W.W.V.T.b.G ( E t.E.F.[.M.^.T.E.R.}.W.Y.S.A.",
"W.C.V.P.V.(.R.R.B.!.z.S.L.H.g.E | T w.Q.h.m./.N.c.U.V.!.S.R.m.Z.W.C.V.P.V.(.R.R.B.!.z.S.L.H.g.E | T w.Q.h.m./.N.v.E.D.I.Z.Z.!.I.",
"C.k.D.x.Z.z.N.b.R.c.M.l.).N.v.K ) G g.c.c.b.V.v.Z.n.^.k.R.V.N.T.C.k.D.x.Z.z.N.b.R.c.M.l.).N.v.K ) G g.c.c.b.V.v.B.l.R.F.m.R.C.F.",
"A.F.l.A.b.N.n.M.l.S.z.B.j.l.j.! ] Q y.M.j.D.x.N.M.S.f.D.j.c.R.V.A.F.l.A.b.N.n.M.l.S.z.B.j.l.j.! ] Q y.M.j.D.x.N.D.F.f.g.R.D.C.C.",
"%.O.+.*.@.@.%.#.+.$.+.=.X.%.$.P { J %.@.%.o.#.%.%.#.%.o.*.$.+.%.%.O.+.*.@.@.%.#.+.$.+.=.X.%.$.P { J %.@.%.o.#.%.+.$.&.$.#.@.$.$.",
"c d n z k b x j j n j k z v h b l v z x z c x k v z l v z k l x l x c l z b j x j n j k z v h b l v z x z c x k v z l v z k l x ",
"I ! G T T K Y T U T I T I Y P Y Y L R P U Y I Y L I I P I R W L Y T J R L Y L Y U T I T I Y P Y Y L R P U Y I Y L I I P I R W L ",
"_ _ } [ _ ` [ ] [ _ ' | _ ' ] ' ' { ) { [ ) { ] } } ]  .) _ [ [ T ) Q ' ' `  .[ [ _ ' | _ ' ] ' ' { ) { [ ) { ] } } ]  .) _ [ [ ",
"E ) U F.Q.[.#X9XwX8X8XwXqXqXqXqXqX7XqXqX7XuX6XwX5X7X5X0X*X[.E.B.I ) K Z.Q. X|.0XwX8X8XwXqXqXqXqXqX7XqXqX7XuX6XwX5X7X5X0X*X[.E.B.",
"L  .L t.=X@X+X%X$X$XoXoX&X@XoX#X'.[.[._.@X'.#X`.$XOX$X/.#X}.oXx.Y } U a.+X$X#X%X$X$XoXoX&X@XoX#X'.[.[._.@X'.#X`.$XOX$X/.#X}.oXx.",
"R ' U r.$X@X).+XoX#XXX].OX}.`.}.].[.`.oX'.;X{.OX[.XX(.|.'.#X].l.U { J p.+XoX}.#XoX#XXX].OX}.`.}.].[.`.oX'.;X{.OX[.XX(.|.'.#X].l.",
"H [ Q q.|.`.;X'.}.oX+X[.{.).).).{._.[.`.@X(.OX X+X|.}._.].T.`.n.K { ^ 9.[.{.OX].}.oX+X[.{.).).).{._.[.`.@X(.OX X+X|.}._.].T.`.n.",
"T ' L y.].@X'.[.`.}.#X}.).!.).!.OX{.].+X}.[.'.#X[.@X`.$X!.'.Q.k.E _ J f.`.#X X`.`.}.#X}.).!.).!.OX{.].+X}.[.'.#X[.@X`.$X!.'.Q.k.",
"I ] P i._.}.+X[.[.{._.].Q._.Q.oX`.$X].E.}.[.].].Q._.%XQ.`.W.E.z.I ] P i._.}.+X[.[.{._.].Q._.Q.oX`.$X].E.}.[.].].Q._.%XQ.`.W.E.z.",
"R _ W u.[.'.`.+X'.].}.U.{.!.'.!.-XY.#XQ.I.].Q.'.Y.!.U.T.~.Y.[.l.R _ W u.[.'.`.+X'.].}.U.{.!.'.!.-XY.#XQ.I.].Q.'.Y.!.U.T.~.Y.[.l.",
"Y / K g._.{.T.|.T.Q.W.Q.W.].P.}.U.~.T.^.T.E.[.R.#XW.!.[.).).T.v.Y / K g._.{.T.|.T.Q.W.Q.W.].P.}.U.~.T.^.T.E.[.R.#XW.!.[.).).T.v.",
"P | U u.Y.V.oXv.R.Y.!.E.M.T.OXI.^.M.^.`.Y.].B.~.E.T.m.!.W.Z.R.h.P | U u.Y.V.oXv.R.Y.!.E.M.T.OXI.^.M.^.`.Y.].B.~.E.T.m.!.W.Z.R.h.",
"I [ K w.^.h.Z.~.H.j.W.C.Q.G.L.Z.B.W.V.M.^.H.T.T.T.F./.j.S.R.S.x.I [ K w.^.h.Z.~.H.j.W.C.Q.G.L.Z.B.W.V.M.^.H.T.T.T.F./.j.S.R.S.x.",
"Y / W d.j.M.j.C.d.D.z.E.k.E.V.m.E.F.k.H.k.M.c.V.c.Y.k.B.x.E.D.v.Y / W d.j.M.j.C.d.D.z.E.k.E.V.m.E.F.k.H.k.M.c.V.c.Y.k.B.x.E.D.v.",
"L { P a.M.h.Z.c.D.A.S.k.C.c.z.T.A.V.Z.h.C.c.A.x.A.z.D.l.V.M.h.h.L { P a.M.h.Z.c.D.A.S.k.C.c.z.T.A.V.Z.h.C.c.A.x.A.z.D.l.V.M.h.h.",
"I } I @.$.*.O.#.@.X.$.@.*.o.+.$.%.#.%.#.@.&.@.O.$.@.@.*.#. .;.$.I } I @.$.*.O.#.@.X.$.@.*.o.+.$.%.#.%.#.@.&.@.O.$.@.@.*.#. .;.$.",
"U ) Q M l l z k x z l x l b l l j n g h x x l c x l j c j z c m C K S M z z j z x z l x l b l l j n g h x x l c l z z z z j z N ",
"P R I I I T I E Y Y I E K P U T U U Q Q E J L U K T Y Y Y T P Y L T P L I R U T Y Y I E K P U T U U Q Q E J L U U I Y K E I U P ",
"[ ' ` ] | ] ` [ | ' ` { ' ` ..( { ) ' } ( [ O._ ) } ] ( ] ] ` ] } [ { )  .' ] ` | ' ` { ' ` ..( { ) ' } ( [ O._ ] ] ' / [ ] [ ] ",
"8X8XwX7XqX6X9X9X4XwX5X#X'.~.M.W [ T F.K.{.@X7X8XqX0X0X8X0X0XqX9X7X6XwX6XeX4X9X9X4XwX5X#X'.~.M.W [ T F.K.{.@X7X8X8XwX0XqX9X9X7XqX",
"`.}.`.+X].@X X+X}.#X'.;X[.@Xx.K [ J p.#X*X$X%X@X%X|.+X=X#X+XOX{.`.|.`.$X'.@X}.+X}.#X'.;X[.@Xx.K [ J p.#X*X$X%X@X+X+X#X@X@X}.].[.",
"}.~. X].&X].oX}.@X).'.'.OX^.b.R ' I u.@X+X).#X$X$X{.{.#X].].]._.}._..X].OX}.OX{.@X).'.'.OX^.b.R ' I u.@X+X).#X$X#X|.}./. X).'.).",
"'.[._.$X[.#X XXX'.XX{.`.Q. Xz.L } H s.[.'.;X/.[.@X+X`.}.!._./. X`.{._.+X_.%XXXXX'.XX{.`.Q. Xz.L } H s.[.'.;X/.[.@XoX`.!.(.}.|.{.",
"'.|.#X[.`.].+X{.#X'.+XT.[.T.k.T ` R y.'.$X(.oX).{.&X'.].!.`.Q.OX'.'.@X[.}.`.OX{.#X'.+XT.[.T.k.T ` R y.'.$X(.oX).[.%X`.{.R.@X'.].",
"oX{.E.}.).{.}.R.'.+X~.).W.W.j.W ' U u.{._.oX|.'.[.'.'.W.].R.;X(.oX{.E.}.).{.}.R.'.+X~.).W.W.j.W ' U u.{._.oX|.'._.|.].T.$X].+X%X",
"/.@XY.E. XL.'.W.E.~.W.T.E.|.j.H [ U u.{.{.[.+X`.{.[.~.(.T.}.H.:X/.@XY.E. XL.'.W.E.~.W.T.E.|.j.H [ U u.{.{.[.+X`.[.`.E.|.Y.+X/.K.",
"I.~.T.Y.W.XXU.$XR.E.(.{.!.Y.z.Q [ U i.`.'.Q.`.E.Y.W.U.(.`.E.[.U.I.~.T.Y.W.XXU.$XR.E.(.{.!.Y.z.Q [ U i.`.'.Q.`.E.!.I.(.J.}.!.T.^.",
"D.T.|.^.].m.~.U.~.B.W.W.V.T.b.G ( E t.E.F.[.M.^.Q.E.Q.V.Y. XW.W.D.T.|.^.].m.~.U.~.B.W.W.V.T.b.G ( E t.E.F.[.M.^.T.E.R.}.W.Y.S.A.",
"W.C.V.P.V.(.R.R.B.!.z.S.L.H.g.E | T w.Q.h.m./.N.c.U.V.!.S.R.m.Z.W.C.V.P.V.(.R.R.B.!.z.S.L.H.g.E | T w.Q.h.m./.N.v.E.D.I.Z.Z.!.I.",
"C.k.D.x.Z.z.N.b.R.c.M.l.).N.v.K ) G g.c.c.b.V.v.Z.n.^.k.R.V.N.T.C.k.D.x.Z.z.N.b.R.c.M.l.).N.v.K ) G g.c.c.b.V.v.B.l.R.F.m.R.C.F.",
"A.F.l.A.b.N.n.M.l.S.z.B.j.l.j.! ] Q y.M.j.D.x.N.M.S.f.D.j.c.R.V.A.F.l.A.b.N.n.M.l.S.z.B.j.l.j.! ] Q y.M.j.D.x.N.D.F.f.g.R.D.C.C.",
"%.O.+.*.@.@.%.#.+.$.+.=.X.%.$.P { J %.@.%.o.#.%.%.#.%.o.*.$.+.%.%.O.+.*.@.@.%.#.+.$.+.=.X.%.$.P { J %.@.%.o.#.%.+.$.&.$.#.@.$.$."
};
